<svg width="20" height="20" viewBox="0 0 20 20" fill="none" xmlns="http://www.w3.org/2000/svg">
<path fill-rule="evenodd" clip-rule="evenodd" d="M5.83334 13.2511V15.8293L10.0518 13.3365L10.4928 13.3293C12.246 13.3006 13.8239 13.1241 15.0037 12.9446C15.7483 12.8313 16.2656 12.3116 16.378 11.6591C16.5339 10.7541 16.6667 9.60744 16.6667 8.33334C16.6667 7.05924 16.5339 5.91261 16.378 5.00756C16.2656 4.35507 15.7483 3.83543 15.0037 3.72214C13.7133 3.5258 11.9486 3.33334 10 3.33334C8.05139 3.33334 6.28674 3.5258 4.99636 3.72214C4.25179 3.83543 3.73442 4.35507 3.62203 5.00756C3.46614 5.91261 3.33334 7.05924 3.33334 8.33334C3.33334 9.60744 3.46614 10.7541 3.62203 11.6591C3.71963 12.2257 4.11545 12.6799 4.69257 12.8718L5.83334 13.2511ZM1.97955 4.72464C2.22137 3.32073 3.33727 2.28873 4.74565 2.07444C6.09509 1.86912 7.94633 1.66667 10 1.66667C12.0537 1.66667 13.9049 1.86912 15.2544 2.07444C16.6628 2.28874 17.7787 3.32073 18.0205 4.72464C18.189 5.7031 18.3334 6.94605 18.3334 8.33334C18.3334 9.72063 18.189 10.9636 18.0205 11.9421C17.7787 13.346 16.6628 14.378 15.2544 14.5923C14.0199 14.7801 12.3654 14.9655 10.5201 14.9958L5.42394 18.0071C4.86843 18.3354 4.16667 17.9349 4.16667 17.2897V14.4533C3.0388 14.0783 2.18713 13.1472 1.97955 11.9421C1.81101 10.9636 1.66667 9.72063 1.66667 8.33334C1.66667 6.94605 1.81101 5.7031 1.97955 4.72464Z" fill="#828FA2"/>
<path fill-rule="evenodd" clip-rule="evenodd" d="M5.83333 5.83333C5.3731 5.83333 5 6.20642 5 6.66666C5 7.1269 5.3731 7.5 5.83333 7.5H14.1667C14.6269 7.5 15 7.1269 15 6.66666C15 6.20642 14.6269 5.83333 14.1667 5.83333H5.83333ZM5.83333 9.16666C5.3731 9.16666 5 9.53976 5 10C5 10.4602 5.3731 10.8333 5.83333 10.8333H9.16667C9.6269 10.8333 10 10.4602 10 10C10 9.53976 9.6269 9.16666 9.16667 9.16666H5.83333Z" fill="#828FA2"/>
</svg>
