<svg width="20" height="20" viewBox="0 0 20 20" fill="none" xmlns="http://www.w3.org/2000/svg">
<path fill-rule="evenodd" clip-rule="evenodd" d="M4.9593 10C4.70182 10 4.50597 10.2312 4.5483 10.4852L5.34644 15.274C5.48038 16.0777 6.17569 16.6667 6.99043 16.6667H13.0096C13.8243 16.6667 14.5196 16.0777 14.6536 15.274L15.4517 10.4852C15.4941 10.2312 15.2982 10 15.0407 10H4.9593ZM3.48372 8.33334C2.96877 8.33334 2.57706 8.79573 2.66172 9.30368L3.70245 15.548C3.97033 17.1553 5.36096 18.3333 6.99043 18.3333H13.0096C14.6391 18.3333 16.0297 17.1553 16.2976 15.548L17.3383 9.30368C17.423 8.79573 17.0313 8.33334 16.5163 8.33334H3.48372Z" fill="#828FA2"/>
<path d="M8.33333 11.6667C7.8731 11.6667 7.5 12.0398 7.5 12.5V14.1667C7.5 14.6269 7.8731 15 8.33333 15C8.79357 15 9.16667 14.6269 9.16667 14.1667V12.5C9.16667 12.0398 8.79357 11.6667 8.33333 11.6667ZM11.6667 11.6667C11.2064 11.6667 10.8333 12.0398 10.8333 12.5V14.1667C10.8333 14.6269 11.2064 15 11.6667 15C12.1269 15 12.5 14.6269 12.5 14.1667V12.5C12.5 12.0398 12.1269 11.6667 11.6667 11.6667Z" fill="#828FA2"/>
<path d="M8.33333 11.6667C7.8731 11.6667 7.5 12.0398 7.5 12.5V14.1667C7.5 14.6269 7.8731 15 8.33333 15C8.79357 15 9.16667 14.6269 9.16667 14.1667V12.5C9.16667 12.0398 8.79357 11.6667 8.33333 11.6667ZM11.6667 11.6667C11.2064 11.6667 10.8333 12.0398 10.8333 12.5V14.1667C10.8333 14.6269 11.2064 15 11.6667 15C12.1269 15 12.5 14.6269 12.5 14.1667V12.5C12.5 12.0398 12.1269 11.6667 11.6667 11.6667Z" fill="#828FA2"/>
<path d="M8.92259 3.08925C9.24803 2.76381 9.24803 2.23617 8.92259 1.91073C8.59716 1.5853 8.06952 1.5853 7.74408 1.91073L4.41075 5.24407C4.08531 5.56951 4.08531 6.09715 4.41075 6.42258C4.73618 6.74802 5.26382 6.74802 5.58926 6.42258L8.92259 3.08925ZM11.0774 3.08925C10.752 2.76381 10.752 2.23617 11.0774 1.91073C11.4028 1.5853 11.9305 1.5853 12.2559 1.91073L15.5893 5.24407C15.9147 5.56951 15.9147 6.09715 15.5893 6.42258C15.2639 6.74802 14.7362 6.74802 14.4108 6.42258L11.0774 3.08925Z" fill="#828FA2"/>
<path d="M8.92259 3.08925C9.24803 2.76381 9.24803 2.23617 8.92259 1.91073C8.59716 1.5853 8.06952 1.5853 7.74408 1.91073L4.41075 5.24407C4.08531 5.56951 4.08531 6.09715 4.41075 6.42258C4.73618 6.74802 5.26382 6.74802 5.58926 6.42258L8.92259 3.08925ZM11.0774 3.08925C10.752 2.76381 10.752 2.23617 11.0774 1.91073C11.4028 1.5853 11.9305 1.5853 12.2559 1.91073L15.5893 5.24407C15.9147 5.56951 15.9147 6.09715 15.5893 6.42258C15.2639 6.74802 14.7362 6.74802 14.4108 6.42258L11.0774 3.08925Z" fill="#828FA2"/>
<path fill-rule="evenodd" clip-rule="evenodd" d="M15.8334 6.66667H4.16667C3.70643 6.66667 3.33334 7.03976 3.33334 7.5C3.33334 7.96024 3.70643 8.33333 4.16667 8.33333H15.8334C16.2936 8.33333 16.6667 7.96024 16.6667 7.5C16.6667 7.03976 16.2936 6.66667 15.8334 6.66667ZM4.16667 5C2.78596 5 1.66667 6.11929 1.66667 7.5C1.66667 8.88071 2.78596 10 4.16667 10H15.8334C17.2141 10 18.3334 8.88071 18.3334 7.5C18.3334 6.11929 17.2141 5 15.8334 5H4.16667Z" fill="#828FA2"/>
</svg>
