<svg width="20" height="20" viewBox="0 0 20 20" fill="none" xmlns="http://www.w3.org/2000/svg">
<path fill-rule="evenodd" clip-rule="evenodd" d="M3.33333 3.33333C3.11232 3.33333 2.90035 3.42112 2.74407 3.5774C2.58779 3.73368 2.5 3.94565 2.5 4.16666V15.8334C2.5 16.0544 2.58779 16.2663 2.74407 16.4226C2.90035 16.5789 3.11232 16.6667 3.33333 16.6667H16.6666C16.8876 16.6667 17.0996 16.5789 17.2559 16.4226C17.4122 16.2663 17.5 16.0544 17.5 15.8334V6.66666C17.5 6.44565 17.4122 6.23368 17.2559 6.0774C17.0996 5.92112 16.8876 5.83333 16.6666 5.83333H9.16666C8.88803 5.83333 8.62784 5.69408 8.47329 5.46224L7.05401 3.33333H3.33333ZM1.56557 2.39889C2.0344 1.93005 2.67029 1.66666 3.33333 1.66666H7.5C7.77862 1.66666 8.03882 1.80591 8.19337 2.03774L9.61265 4.16666H16.6666C17.3297 4.16666 17.9656 4.43005 18.4344 4.89889C18.9032 5.36773 19.1666 6.00362 19.1666 6.66666V15.8334C19.1666 16.4964 18.9032 17.1323 18.4344 17.6011C17.9656 18.07 17.3297 18.3334 16.6666 18.3334H3.33333C2.67029 18.3334 2.0344 18.07 1.56557 17.6011C1.09672 17.1323 0.833332 16.4964 0.833332 15.8334V4.16666C0.833332 3.50362 1.09672 2.86773 1.56557 2.39889Z" fill="#828FA2"/>
</svg>
