<svg width="20" height="20" viewBox="0 0 20 20" fill="none" xmlns="http://www.w3.org/2000/svg">
<path fill-rule="evenodd" clip-rule="evenodd" d="M1.66667 2.5C1.66667 2.03976 2.03976 1.66666 2.5 1.66666H8.33334C8.79357 1.66666 9.16667 2.03976 9.16667 2.5V8.33333C9.16667 8.79356 8.79357 9.16666 8.33334 9.16666H2.5C2.03976 9.16666 1.66667 8.79356 1.66667 8.33333V2.5ZM3.33334 3.33333V7.49999H7.5V3.33333H3.33334Z" fill="#828FA2"/>
<path fill-rule="evenodd" clip-rule="evenodd" d="M10.8333 2.5C10.8333 2.03976 11.2064 1.66666 11.6667 1.66666H17.5C17.9602 1.66666 18.3333 2.03976 18.3333 2.5V8.33333C18.3333 8.79356 17.9602 9.16666 17.5 9.16666H11.6667C11.2064 9.16666 10.8333 8.79356 10.8333 8.33333V2.5ZM12.5 3.33333V7.49999H16.6667V3.33333H12.5Z" fill="#828FA2"/>
<path fill-rule="evenodd" clip-rule="evenodd" d="M10.8333 11.6667C10.8333 11.2064 11.2064 10.8333 11.6667 10.8333H17.5C17.9602 10.8333 18.3333 11.2064 18.3333 11.6667V17.5C18.3333 17.9602 17.9602 18.3333 17.5 18.3333H11.6667C11.2064 18.3333 10.8333 17.9602 10.8333 17.5V11.6667ZM12.5 12.5V16.6667H16.6667V12.5H12.5Z" fill="#828FA2"/>
<path fill-rule="evenodd" clip-rule="evenodd" d="M1.66667 11.6667C1.66667 11.2064 2.03976 10.8333 2.5 10.8333H8.33334C8.79357 10.8333 9.16667 11.2064 9.16667 11.6667V17.5C9.16667 17.9602 8.79357 18.3333 8.33334 18.3333H2.5C2.03976 18.3333 1.66667 17.9602 1.66667 17.5V11.6667ZM3.33334 12.5V16.6667H7.5V12.5H3.33334Z" fill="#828FA2"/>
</svg>
