<svg width="88" height="28" viewBox="0 0 88 28" fill="none" xmlns="http://www.w3.org/2000/svg">
<path d="M73.7946 17.5549C72.424 17.5554 71.1098 17.7105 70.1409 17.9864C69.1716 18.2623 68.6265 18.6364 68.6251 19.0265V22.6918C68.6397 22.9542 68.4708 23.2146 68.1282 23.4581C67.7856 23.7016 67.2763 23.9233 66.6298 24.1102C65.9833 24.2972 65.2126 24.4457 64.3626 24.547C63.5126 24.6483 62.6001 24.7005 61.6786 24.7005C60.7569 24.7005 59.8446 24.6483 58.9946 24.547C58.1446 24.4457 57.3738 24.2972 56.7274 24.1102C56.0809 23.9233 55.5715 23.7016 55.2289 23.4581C54.8864 23.2146 54.7175 22.9542 54.732 22.6918V19.0265C54.732 18.6362 54.1873 18.262 53.2179 17.986C52.2484 17.7101 50.9335 17.5551 49.5624 17.5551C48.1914 17.5551 46.8765 17.7101 45.907 17.986C44.9375 18.262 44.3929 18.6362 44.3929 19.0265V23.0799C44.3929 23.726 44.84 24.3658 45.7086 24.9627C46.5773 25.5597 47.8506 26.102 49.4557 26.5589C51.0608 27.0158 52.9664 27.3782 55.0636 27.6254C57.1608 27.8727 59.4086 27.9999 61.6786 27.9999C63.9485 27.9999 66.1964 27.8727 68.2935 27.6254C70.3907 27.3782 72.2962 27.0158 73.9013 26.5589C75.5065 26.102 76.7798 25.5597 77.6484 24.9627C78.5172 24.3658 78.9643 23.726 78.9643 23.0799V19.0265C78.9627 18.6363 78.4177 18.2623 77.4486 17.9864C76.4794 17.7105 75.1652 17.5554 73.7946 17.5549ZM76.7025 23.0796C76.7025 24.2138 75.1196 25.3014 72.3021 26.1034C69.4846 26.9053 65.6632 27.3559 61.6786 27.3559C57.6939 27.3559 53.8725 26.9053 51.055 26.1034C48.2374 25.3014 46.6546 24.2138 46.6546 23.0796V19.0265C46.6612 18.8082 46.9704 18.5995 47.5151 18.4458C48.0597 18.2922 48.7955 18.2059 49.5624 18.2059C50.3293 18.2059 51.0652 18.2922 51.6098 18.4458C52.1544 18.5995 52.4637 18.8082 52.4703 19.0265V22.6918C52.4703 23.3869 53.4404 24.0536 55.1673 24.5452C56.8942 25.0367 59.2364 25.3128 61.6786 25.3128C64.1207 25.3128 66.4629 25.0367 68.1899 24.5452C69.9166 24.0536 70.8868 23.3869 70.8868 22.6918V19.0265C70.8868 18.807 71.1931 18.5965 71.7385 18.4412C72.284 18.286 73.0235 18.1988 73.7946 18.1988C74.566 18.1988 75.3055 18.286 75.851 18.4412C76.3961 18.5965 76.7025 18.807 76.7025 19.0265V23.0796Z" fill="#FF8B6A"/>
<path d="M60.5476 18.3052V22.5486C60.5476 22.634 60.6668 22.7158 60.8789 22.7762C61.0909 22.8366 61.3786 22.8705 61.6785 22.8705C61.9784 22.8705 62.266 22.8366 62.4781 22.7762C62.6902 22.7158 62.8094 22.634 62.8094 22.5486V18.3052C64.2694 18.2251 65.5722 17.993 66.4634 17.6542C67.3544 17.3154 67.77 16.8943 67.6286 16.4729C67.4873 16.0516 66.7995 15.6605 65.6992 15.3758C64.5989 15.0911 63.1654 14.9333 61.6785 14.9333C60.1916 14.9333 58.758 15.0911 57.6578 15.3758C56.5576 15.6605 55.8697 16.0516 55.7284 16.4729C55.5871 16.8943 56.0025 17.3154 56.8937 17.6542C57.7848 17.993 59.0876 18.2251 60.5476 18.3052ZM61.6785 15.5778C62.4134 15.5778 63.1318 15.6398 63.7428 15.756C64.3539 15.8722 64.8301 16.0374 65.1114 16.2307C65.3926 16.4239 65.4662 16.6366 65.3228 16.8417C65.1794 17.0469 64.8255 17.2353 64.3058 17.3832C63.7861 17.5311 63.124 17.6318 62.4033 17.6726C61.6825 17.7134 60.9354 17.6925 60.2564 17.6124C59.5775 17.5324 58.9972 17.3968 58.5889 17.2229C58.1806 17.049 57.9628 16.8445 57.9628 16.6353C57.964 16.3549 58.3558 16.0861 59.0524 15.8879C59.749 15.6896 60.6934 15.5781 61.6785 15.5778Z" fill="#FF8B6A"/>
<path d="M17.2794 0.40303H22.2451V5.85004C22.2451 6.44714 21.7811 6.97228 20.8532 7.42551C19.934 7.87878 18.6401 8.23293 16.9716 8.48806C15.303 8.74048 13.3533 8.86667 11.1226 8.86667C8.88288 8.86667 6.92873 8.74048 5.26012 8.48806C3.59152 8.23293 2.29768 7.87878 1.37861 7.42551C0.459536 6.97228 0 6.44714 0 5.85004V0.40303H4.96567V5.72385C4.96567 6.07124 5.21551 6.38064 5.71519 6.65205C6.22382 6.92342 6.93765 7.1365 7.85672 7.2912C8.7758 7.44315 9.86441 7.51917 11.1226 7.51917C12.3807 7.51917 13.4693 7.44315 14.3884 7.2912C15.3164 7.1365 16.0301 6.92342 16.5299 6.65205C17.0296 6.38064 17.2794 6.07124 17.2794 5.72385V0.40303ZM37.6942 2.48739V3.62727H25.8756V2.48739H37.6942ZM28.7934 0.989254H33.6386V6.85967C33.6386 7.05777 33.7368 7.20977 33.9331 7.31561C34.1383 7.41874 34.4061 7.4893 34.7363 7.52729C35.0664 7.56532 35.4323 7.58431 35.8338 7.58431C36.1372 7.58431 36.4138 7.5775 36.6636 7.56392C36.9224 7.55039 37.1187 7.53816 37.2524 7.52729L38.069 8.67939C37.8101 8.70655 37.4399 8.73637 36.9581 8.76895C36.4851 8.80152 35.9051 8.82051 35.2181 8.82597C34.0046 8.8368 32.9115 8.78117 31.9388 8.65905C30.9663 8.53421 30.1944 8.34153 29.6233 8.08094C29.0612 7.8204 28.7846 7.49471 28.7934 7.10393V0.989254ZM41.7464 8.74048V2.48739H46.5916V8.74048H41.7464ZM44.1823 1.59991C43.415 1.59991 42.7546 1.52256 42.2015 1.36786C41.6482 1.21045 41.3716 1.02182 41.3716 0.80199C41.3716 0.579441 41.6482 0.390817 42.2015 0.236118C42.7546 0.0787061 43.415 0 44.1823 0C44.9587 0 45.619 0.0787061 46.1632 0.236118C46.7165 0.390817 46.9931 0.579441 46.9931 0.80199C46.9931 1.02182 46.7165 1.21045 46.1632 1.36786C45.619 1.52256 44.9587 1.59991 44.1823 1.59991ZM56.4192 0.40303V8.74048H51.574V0.40303H56.4192ZM66.2467 0.40303V8.74048H61.4015V0.40303H66.2467ZM77.1452 8.86667C75.8423 8.86667 74.6689 8.79611 73.625 8.65499C72.5899 8.51111 71.769 8.29943 71.1623 8.0199C70.5644 7.74037 70.2655 7.39569 70.2655 6.98586C70.2655 6.63306 70.4797 6.3413 70.9079 6.11058C71.3363 5.87991 71.9207 5.69534 72.6613 5.55693C73.4019 5.41851 74.2362 5.31403 75.1643 5.24347C76.1011 5.1702 77.0693 5.11728 78.0687 5.08471C79.2732 5.04672 80.2503 5.01279 80.9999 4.98293C81.7495 4.95035 82.2937 4.90149 82.6328 4.83635C82.9809 4.76849 83.1548 4.66403 83.1548 4.5229V4.49847C83.1548 4.19179 82.8559 3.95431 82.258 3.78604C81.6602 3.61777 80.7991 3.53364 79.6749 3.53364C78.488 3.53364 77.5467 3.61235 76.8507 3.76976C76.1637 3.92717 75.6996 4.11308 75.4587 4.32749L70.9348 4.13208C71.2916 3.75212 71.8806 3.43458 72.7015 3.17946C73.5224 2.92163 74.5263 2.72894 75.713 2.60138C76.8997 2.47111 78.2114 2.40597 79.648 2.40597C80.6385 2.40597 81.6246 2.44125 82.6061 2.51181C83.5876 2.58238 84.4844 2.69908 85.2964 2.86192C86.1083 3.02205 86.7597 3.24052 87.2504 3.51736C87.7501 3.79418 88 4.14022 88 4.55546V8.74048H83.3421V7.88149H83.1815C82.887 8.05518 82.4722 8.218 81.9368 8.36999C81.4104 8.51928 80.7457 8.64005 79.9425 8.73231C79.1483 8.82187 78.216 8.86667 77.1452 8.86667ZM78.4033 7.78377C79.3758 7.78377 80.2191 7.72543 80.933 7.60872C81.6469 7.4893 82.1956 7.33189 82.5792 7.1365C82.9719 6.94106 83.1682 6.72803 83.1682 6.49735V5.76049C83.0165 5.79847 82.7577 5.83375 82.3919 5.86633C82.035 5.8989 81.6334 5.92741 81.1872 5.95182C80.7411 5.97623 80.2994 5.99797 79.8622 6.01697C79.425 6.03596 79.0457 6.05225 78.7245 6.06583C78.0018 6.09565 77.3548 6.14451 76.7838 6.21236C76.2127 6.28021 75.762 6.37523 75.4319 6.49735C75.1017 6.61677 74.9367 6.77147 74.9367 6.96145C74.9367 7.23282 75.2623 7.43773 75.9138 7.57615C76.5652 7.71456 77.3951 7.78377 78.4033 7.78377Z" fill="#2D2D2D"/>
<path d="M17.2794 0.40303H22.2451V5.85004C22.2451 6.44714 21.7811 6.97228 20.8532 7.42551C19.934 7.87878 18.6401 8.23293 16.9716 8.48806C15.303 8.74048 13.3533 8.86667 11.1226 8.86667C8.88288 8.86667 6.92873 8.74048 5.26012 8.48806C3.59152 8.23293 2.29768 7.87878 1.37861 7.42551C0.459536 6.97228 0 6.44714 0 5.85004V0.40303H4.96567V5.72385C4.96567 6.07124 5.21551 6.38064 5.71519 6.65205C6.22382 6.92342 6.93765 7.1365 7.85672 7.2912C8.7758 7.44315 9.86441 7.51917 11.1226 7.51917C12.3807 7.51917 13.4693 7.44315 14.3884 7.2912C15.3164 7.1365 16.0301 6.92342 16.5299 6.65205C17.0296 6.38064 17.2794 6.07124 17.2794 5.72385V0.40303ZM37.6942 2.48739V3.62727H25.8756V2.48739H37.6942ZM28.7934 0.989254H33.6386V6.85967C33.6386 7.05777 33.7368 7.20977 33.9331 7.31561C34.1383 7.41874 34.4061 7.4893 34.7363 7.52729C35.0664 7.56532 35.4323 7.58431 35.8338 7.58431C36.1372 7.58431 36.4138 7.5775 36.6636 7.56392C36.9224 7.55039 37.1187 7.53816 37.2524 7.52729L38.069 8.67939C37.8101 8.70655 37.4399 8.73637 36.9581 8.76895C36.4851 8.80152 35.9051 8.82051 35.2181 8.82597C34.0046 8.8368 32.9115 8.78117 31.9388 8.65905C30.9663 8.53421 30.1944 8.34153 29.6233 8.08094C29.0612 7.8204 28.7846 7.49471 28.7934 7.10393V0.989254ZM41.7464 8.74048V2.48739H46.5916V8.74048H41.7464ZM44.1823 1.59991C43.415 1.59991 42.7546 1.52256 42.2015 1.36786C41.6482 1.21045 41.3716 1.02182 41.3716 0.80199C41.3716 0.579441 41.6482 0.390817 42.2015 0.236118C42.7546 0.0787061 43.415 0 44.1823 0C44.9587 0 45.619 0.0787061 46.1632 0.236118C46.7165 0.390817 46.9931 0.579441 46.9931 0.80199C46.9931 1.02182 46.7165 1.21045 46.1632 1.36786C45.619 1.52256 44.9587 1.59991 44.1823 1.59991ZM56.4192 0.40303V8.74048H51.574V0.40303H56.4192ZM66.2467 0.40303V8.74048H61.4015V0.40303H66.2467ZM77.1452 8.86667C75.8423 8.86667 74.6689 8.79611 73.625 8.65499C72.5899 8.51111 71.769 8.29943 71.1623 8.0199C70.5644 7.74037 70.2655 7.39569 70.2655 6.98586C70.2655 6.63306 70.4797 6.3413 70.9079 6.11058C71.3363 5.87991 71.9207 5.69534 72.6613 5.55693C73.4019 5.41851 74.2362 5.31403 75.1643 5.24347C76.1011 5.1702 77.0693 5.11728 78.0687 5.08471C79.2732 5.04672 80.2503 5.01279 80.9999 4.98293C81.7495 4.95035 82.2937 4.90149 82.6328 4.83635C82.9809 4.76849 83.1548 4.66403 83.1548 4.5229V4.49847C83.1548 4.19179 82.8559 3.95431 82.258 3.78604C81.6602 3.61777 80.7991 3.53364 79.6749 3.53364C78.488 3.53364 77.5467 3.61235 76.8507 3.76976C76.1637 3.92717 75.6996 4.11308 75.4587 4.32749L70.9348 4.13208C71.2916 3.75212 71.8806 3.43458 72.7015 3.17946C73.5224 2.92163 74.5263 2.72894 75.713 2.60138C76.8997 2.47111 78.2114 2.40597 79.648 2.40597C80.6385 2.40597 81.6246 2.44125 82.6061 2.51181C83.5876 2.58238 84.4844 2.69908 85.2964 2.86192C86.1083 3.02205 86.7597 3.24052 87.2504 3.51736C87.7501 3.79418 88 4.14022 88 4.55546V8.74048H83.3421V7.88149H83.1815C82.887 8.05518 82.4722 8.218 81.9368 8.36999C81.4104 8.51928 80.7457 8.64005 79.9425 8.73231C79.1483 8.82187 78.216 8.86667 77.1452 8.86667ZM78.4033 7.78377C79.3758 7.78377 80.2191 7.72543 80.933 7.60872C81.6469 7.4893 82.1956 7.33189 82.5792 7.1365C82.9719 6.94106 83.1682 6.72803 83.1682 6.49735V5.76049C83.0165 5.79847 82.7577 5.83375 82.3919 5.86633C82.035 5.8989 81.6334 5.92741 81.1872 5.95182C80.7411 5.97623 80.2994 5.99797 79.8622 6.01697C79.425 6.03596 79.0457 6.05225 78.7245 6.06583C78.0018 6.09565 77.3548 6.14451 76.7838 6.21236C76.2127 6.28021 75.762 6.37523 75.4319 6.49735C75.1017 6.61677 74.9367 6.77147 74.9367 6.96145C74.9367 7.23282 75.2623 7.43773 75.9138 7.57615C76.5652 7.71456 77.3951 7.78377 78.4033 7.78377Z" fill="#2D2D2D"/>
<path d="M17.2794 0.40303H22.2451V5.85004C22.2451 6.44714 21.7811 6.97228 20.8532 7.42551C19.934 7.87878 18.6401 8.23293 16.9716 8.48806C15.303 8.74048 13.3533 8.86667 11.1226 8.86667C8.88288 8.86667 6.92873 8.74048 5.26012 8.48806C3.59152 8.23293 2.29768 7.87878 1.37861 7.42551C0.459536 6.97228 0 6.44714 0 5.85004V0.40303H4.96567V5.72385C4.96567 6.07124 5.21551 6.38064 5.71519 6.65205C6.22382 6.92342 6.93765 7.1365 7.85672 7.2912C8.7758 7.44315 9.86441 7.51917 11.1226 7.51917C12.3807 7.51917 13.4693 7.44315 14.3884 7.2912C15.3164 7.1365 16.0301 6.92342 16.5299 6.65205C17.0296 6.38064 17.2794 6.07124 17.2794 5.72385V0.40303ZM37.6942 2.48739V3.62727H25.8756V2.48739H37.6942ZM28.7934 0.989254H33.6386V6.85967C33.6386 7.05777 33.7368 7.20977 33.9331 7.31561C34.1383 7.41874 34.4061 7.4893 34.7363 7.52729C35.0664 7.56532 35.4323 7.58431 35.8338 7.58431C36.1372 7.58431 36.4138 7.5775 36.6636 7.56392C36.9224 7.55039 37.1187 7.53816 37.2524 7.52729L38.069 8.67939C37.8101 8.70655 37.4399 8.73637 36.9581 8.76895C36.4851 8.80152 35.9051 8.82051 35.2181 8.82597C34.0046 8.8368 32.9115 8.78117 31.9388 8.65905C30.9663 8.53421 30.1944 8.34153 29.6233 8.08094C29.0612 7.8204 28.7846 7.49471 28.7934 7.10393V0.989254ZM41.7464 8.74048V2.48739H46.5916V8.74048H41.7464ZM44.1823 1.59991C43.415 1.59991 42.7546 1.52256 42.2015 1.36786C41.6482 1.21045 41.3716 1.02182 41.3716 0.80199C41.3716 0.579441 41.6482 0.390817 42.2015 0.236118C42.7546 0.0787061 43.415 0 44.1823 0C44.9587 0 45.619 0.0787061 46.1632 0.236118C46.7165 0.390817 46.9931 0.579441 46.9931 0.80199C46.9931 1.02182 46.7165 1.21045 46.1632 1.36786C45.619 1.52256 44.9587 1.59991 44.1823 1.59991ZM56.4192 0.40303V8.74048H51.574V0.40303H56.4192ZM66.2467 0.40303V8.74048H61.4015V0.40303H66.2467ZM77.1452 8.86667C75.8423 8.86667 74.6689 8.79611 73.625 8.65499C72.5899 8.51111 71.769 8.29943 71.1623 8.0199C70.5644 7.74037 70.2655 7.39569 70.2655 6.98586C70.2655 6.63306 70.4797 6.3413 70.9079 6.11058C71.3363 5.87991 71.9207 5.69534 72.6613 5.55693C73.4019 5.41851 74.2362 5.31403 75.1643 5.24347C76.1011 5.1702 77.0693 5.11728 78.0687 5.08471C79.2732 5.04672 80.2503 5.01279 80.9999 4.98293C81.7495 4.95035 82.2937 4.90149 82.6328 4.83635C82.9809 4.76849 83.1548 4.66403 83.1548 4.5229V4.49847C83.1548 4.19179 82.8559 3.95431 82.258 3.78604C81.6602 3.61777 80.7991 3.53364 79.6749 3.53364C78.488 3.53364 77.5467 3.61235 76.8507 3.76976C76.1637 3.92717 75.6996 4.11308 75.4587 4.32749L70.9348 4.13208C71.2916 3.75212 71.8806 3.43458 72.7015 3.17946C73.5224 2.92163 74.5263 2.72894 75.713 2.60138C76.8997 2.47111 78.2114 2.40597 79.648 2.40597C80.6385 2.40597 81.6246 2.44125 82.6061 2.51181C83.5876 2.58238 84.4844 2.69908 85.2964 2.86192C86.1083 3.02205 86.7597 3.24052 87.2504 3.51736C87.7501 3.79418 88 4.14022 88 4.55546V8.74048H83.3421V7.88149H83.1815C82.887 8.05518 82.4722 8.218 81.9368 8.36999C81.4104 8.51928 80.7457 8.64005 79.9425 8.73231C79.1483 8.82187 78.216 8.86667 77.1452 8.86667ZM78.4033 7.78377C79.3758 7.78377 80.2191 7.72543 80.933 7.60872C81.6469 7.4893 82.1956 7.33189 82.5792 7.1365C82.9719 6.94106 83.1682 6.72803 83.1682 6.49735V5.76049C83.0165 5.79847 82.7577 5.83375 82.3919 5.86633C82.035 5.8989 81.6334 5.92741 81.1872 5.95182C80.7411 5.97623 80.2994 5.99797 79.8622 6.01697C79.425 6.03596 79.0457 6.05225 78.7245 6.06583C78.0018 6.09565 77.3548 6.14451 76.7838 6.21236C76.2127 6.28021 75.762 6.37523 75.4319 6.49735C75.1017 6.61677 74.9367 6.77147 74.9367 6.96145C74.9367 7.23282 75.2623 7.43773 75.9138 7.57615C76.5652 7.71456 77.3951 7.78377 78.4033 7.78377Z" fill="#2D2D2D"/>
<path d="M17.2794 0.40303H22.2451V5.85004C22.2451 6.44714 21.7811 6.97228 20.8532 7.42551C19.934 7.87878 18.6401 8.23293 16.9716 8.48806C15.303 8.74048 13.3533 8.86667 11.1226 8.86667C8.88288 8.86667 6.92873 8.74048 5.26012 8.48806C3.59152 8.23293 2.29768 7.87878 1.37861 7.42551C0.459536 6.97228 0 6.44714 0 5.85004V0.40303H4.96567V5.72385C4.96567 6.07124 5.21551 6.38064 5.71519 6.65205C6.22382 6.92342 6.93765 7.1365 7.85672 7.2912C8.7758 7.44315 9.86441 7.51917 11.1226 7.51917C12.3807 7.51917 13.4693 7.44315 14.3884 7.2912C15.3164 7.1365 16.0301 6.92342 16.5299 6.65205C17.0296 6.38064 17.2794 6.07124 17.2794 5.72385V0.40303ZM37.6942 2.48739V3.62727H25.8756V2.48739H37.6942ZM28.7934 0.989254H33.6386V6.85967C33.6386 7.05777 33.7368 7.20977 33.9331 7.31561C34.1383 7.41874 34.4061 7.4893 34.7363 7.52729C35.0664 7.56532 35.4323 7.58431 35.8338 7.58431C36.1372 7.58431 36.4138 7.5775 36.6636 7.56392C36.9224 7.55039 37.1187 7.53816 37.2524 7.52729L38.069 8.67939C37.8101 8.70655 37.4399 8.73637 36.9581 8.76895C36.4851 8.80152 35.9051 8.82051 35.2181 8.82597C34.0046 8.8368 32.9115 8.78117 31.9388 8.65905C30.9663 8.53421 30.1944 8.34153 29.6233 8.08094C29.0612 7.8204 28.7846 7.49471 28.7934 7.10393V0.989254ZM41.7464 8.74048V2.48739H46.5916V8.74048H41.7464ZM44.1823 1.59991C43.415 1.59991 42.7546 1.52256 42.2015 1.36786C41.6482 1.21045 41.3716 1.02182 41.3716 0.80199C41.3716 0.579441 41.6482 0.390817 42.2015 0.236118C42.7546 0.0787061 43.415 0 44.1823 0C44.9587 0 45.619 0.0787061 46.1632 0.236118C46.7165 0.390817 46.9931 0.579441 46.9931 0.80199C46.9931 1.02182 46.7165 1.21045 46.1632 1.36786C45.619 1.52256 44.9587 1.59991 44.1823 1.59991ZM56.4192 0.40303V8.74048H51.574V0.40303H56.4192ZM66.2467 0.40303V8.74048H61.4015V0.40303H66.2467ZM77.1452 8.86667C75.8423 8.86667 74.6689 8.79611 73.625 8.65499C72.5899 8.51111 71.769 8.29943 71.1623 8.0199C70.5644 7.74037 70.2655 7.39569 70.2655 6.98586C70.2655 6.63306 70.4797 6.3413 70.9079 6.11058C71.3363 5.87991 71.9207 5.69534 72.6613 5.55693C73.4019 5.41851 74.2362 5.31403 75.1643 5.24347C76.1011 5.1702 77.0693 5.11728 78.0687 5.08471C79.2732 5.04672 80.2503 5.01279 80.9999 4.98293C81.7495 4.95035 82.2937 4.90149 82.6328 4.83635C82.9809 4.76849 83.1548 4.66403 83.1548 4.5229V4.49847C83.1548 4.19179 82.8559 3.95431 82.258 3.78604C81.6602 3.61777 80.7991 3.53364 79.6749 3.53364C78.488 3.53364 77.5467 3.61235 76.8507 3.76976C76.1637 3.92717 75.6996 4.11308 75.4587 4.32749L70.9348 4.13208C71.2916 3.75212 71.8806 3.43458 72.7015 3.17946C73.5224 2.92163 74.5263 2.72894 75.713 2.60138C76.8997 2.47111 78.2114 2.40597 79.648 2.40597C80.6385 2.40597 81.6246 2.44125 82.6061 2.51181C83.5876 2.58238 84.4844 2.69908 85.2964 2.86192C86.1083 3.02205 86.7597 3.24052 87.2504 3.51736C87.7501 3.79418 88 4.14022 88 4.55546V8.74048H83.3421V7.88149H83.1815C82.887 8.05518 82.4722 8.218 81.9368 8.36999C81.4104 8.51928 80.7457 8.64005 79.9425 8.73231C79.1483 8.82187 78.216 8.86667 77.1452 8.86667ZM78.4033 7.78377C79.3758 7.78377 80.2191 7.72543 80.933 7.60872C81.6469 7.4893 82.1956 7.33189 82.5792 7.1365C82.9719 6.94106 83.1682 6.72803 83.1682 6.49735V5.76049C83.0165 5.79847 82.7577 5.83375 82.3919 5.86633C82.035 5.8989 81.6334 5.92741 81.1872 5.95182C80.7411 5.97623 80.2994 5.99797 79.8622 6.01697C79.425 6.03596 79.0457 6.05225 78.7245 6.06583C78.0018 6.09565 77.3548 6.14451 76.7838 6.21236C76.2127 6.28021 75.762 6.37523 75.4319 6.49735C75.1017 6.61677 74.9367 6.77147 74.9367 6.96145C74.9367 7.23282 75.2623 7.43773 75.9138 7.57615C76.5652 7.71456 77.3951 7.78377 78.4033 7.78377Z" fill="#2D2D2D"/>
<path d="M17.2794 0.40303H22.2451V5.85004C22.2451 6.44714 21.7811 6.97228 20.8532 7.42551C19.934 7.87878 18.6401 8.23293 16.9716 8.48806C15.303 8.74048 13.3533 8.86667 11.1226 8.86667C8.88288 8.86667 6.92873 8.74048 5.26012 8.48806C3.59152 8.23293 2.29768 7.87878 1.37861 7.42551C0.459536 6.97228 0 6.44714 0 5.85004V0.40303H4.96567V5.72385C4.96567 6.07124 5.21551 6.38064 5.71519 6.65205C6.22382 6.92342 6.93765 7.1365 7.85672 7.2912C8.7758 7.44315 9.86441 7.51917 11.1226 7.51917C12.3807 7.51917 13.4693 7.44315 14.3884 7.2912C15.3164 7.1365 16.0301 6.92342 16.5299 6.65205C17.0296 6.38064 17.2794 6.07124 17.2794 5.72385V0.40303ZM37.6942 2.48739V3.62727H25.8756V2.48739H37.6942ZM28.7934 0.989254H33.6386V6.85967C33.6386 7.05777 33.7368 7.20977 33.9331 7.31561C34.1383 7.41874 34.4061 7.4893 34.7363 7.52729C35.0664 7.56532 35.4323 7.58431 35.8338 7.58431C36.1372 7.58431 36.4138 7.5775 36.6636 7.56392C36.9224 7.55039 37.1187 7.53816 37.2524 7.52729L38.069 8.67939C37.8101 8.70655 37.4399 8.73637 36.9581 8.76895C36.4851 8.80152 35.9051 8.82051 35.2181 8.82597C34.0046 8.8368 32.9115 8.78117 31.9388 8.65905C30.9663 8.53421 30.1944 8.34153 29.6233 8.08094C29.0612 7.8204 28.7846 7.49471 28.7934 7.10393V0.989254ZM41.7464 8.74048V2.48739H46.5916V8.74048H41.7464ZM44.1823 1.59991C43.415 1.59991 42.7546 1.52256 42.2015 1.36786C41.6482 1.21045 41.3716 1.02182 41.3716 0.80199C41.3716 0.579441 41.6482 0.390817 42.2015 0.236118C42.7546 0.0787061 43.415 0 44.1823 0C44.9587 0 45.619 0.0787061 46.1632 0.236118C46.7165 0.390817 46.9931 0.579441 46.9931 0.80199C46.9931 1.02182 46.7165 1.21045 46.1632 1.36786C45.619 1.52256 44.9587 1.59991 44.1823 1.59991ZM56.4192 0.40303V8.74048H51.574V0.40303H56.4192ZM66.2467 0.40303V8.74048H61.4015V0.40303H66.2467ZM77.1452 8.86667C75.8423 8.86667 74.6689 8.79611 73.625 8.65499C72.5899 8.51111 71.769 8.29943 71.1623 8.0199C70.5644 7.74037 70.2655 7.39569 70.2655 6.98586C70.2655 6.63306 70.4797 6.3413 70.9079 6.11058C71.3363 5.87991 71.9207 5.69534 72.6613 5.55693C73.4019 5.41851 74.2362 5.31403 75.1643 5.24347C76.1011 5.1702 77.0693 5.11728 78.0687 5.08471C79.2732 5.04672 80.2503 5.01279 80.9999 4.98293C81.7495 4.95035 82.2937 4.90149 82.6328 4.83635C82.9809 4.76849 83.1548 4.66403 83.1548 4.5229V4.49847C83.1548 4.19179 82.8559 3.95431 82.258 3.78604C81.6602 3.61777 80.7991 3.53364 79.6749 3.53364C78.488 3.53364 77.5467 3.61235 76.8507 3.76976C76.1637 3.92717 75.6996 4.11308 75.4587 4.32749L70.9348 4.13208C71.2916 3.75212 71.8806 3.43458 72.7015 3.17946C73.5224 2.92163 74.5263 2.72894 75.713 2.60138C76.8997 2.47111 78.2114 2.40597 79.648 2.40597C80.6385 2.40597 81.6246 2.44125 82.6061 2.51181C83.5876 2.58238 84.4844 2.69908 85.2964 2.86192C86.1083 3.02205 86.7597 3.24052 87.2504 3.51736C87.7501 3.79418 88 4.14022 88 4.55546V8.74048H83.3421V7.88149H83.1815C82.887 8.05518 82.4722 8.218 81.9368 8.36999C81.4104 8.51928 80.7457 8.64005 79.9425 8.73231C79.1483 8.82187 78.216 8.86667 77.1452 8.86667ZM78.4033 7.78377C79.3758 7.78377 80.2191 7.72543 80.933 7.60872C81.6469 7.4893 82.1956 7.33189 82.5792 7.1365C82.9719 6.94106 83.1682 6.72803 83.1682 6.49735V5.76049C83.0165 5.79847 82.7577 5.83375 82.3919 5.86633C82.035 5.8989 81.6334 5.92741 81.1872 5.95182C80.7411 5.97623 80.2994 5.99797 79.8622 6.01697C79.425 6.03596 79.0457 6.05225 78.7245 6.06583C78.0018 6.09565 77.3548 6.14451 76.7838 6.21236C76.2127 6.28021 75.762 6.37523 75.4319 6.49735C75.1017 6.61677 74.9367 6.77147 74.9367 6.96145C74.9367 7.23282 75.2623 7.43773 75.9138 7.57615C76.5652 7.71456 77.3951 7.78377 78.4033 7.78377Z" fill="#2D2D2D"/>
<path d="M17.2794 0.40303H22.2451V5.85004C22.2451 6.44714 21.7811 6.97228 20.8532 7.42551C19.934 7.87878 18.6401 8.23293 16.9716 8.48806C15.303 8.74048 13.3533 8.86667 11.1226 8.86667C8.88288 8.86667 6.92873 8.74048 5.26012 8.48806C3.59152 8.23293 2.29768 7.87878 1.37861 7.42551C0.459536 6.97228 0 6.44714 0 5.85004V0.40303H4.96567V5.72385C4.96567 6.07124 5.21551 6.38064 5.71519 6.65205C6.22382 6.92342 6.93765 7.1365 7.85672 7.2912C8.7758 7.44315 9.86441 7.51917 11.1226 7.51917C12.3807 7.51917 13.4693 7.44315 14.3884 7.2912C15.3164 7.1365 16.0301 6.92342 16.5299 6.65205C17.0296 6.38064 17.2794 6.07124 17.2794 5.72385V0.40303ZM37.6942 2.48739V3.62727H25.8756V2.48739H37.6942ZM28.7934 0.989254H33.6386V6.85967C33.6386 7.05777 33.7368 7.20977 33.9331 7.31561C34.1383 7.41874 34.4061 7.4893 34.7363 7.52729C35.0664 7.56532 35.4323 7.58431 35.8338 7.58431C36.1372 7.58431 36.4138 7.5775 36.6636 7.56392C36.9224 7.55039 37.1187 7.53816 37.2524 7.52729L38.069 8.67939C37.8101 8.70655 37.4399 8.73637 36.9581 8.76895C36.4851 8.80152 35.9051 8.82051 35.2181 8.82597C34.0046 8.8368 32.9115 8.78117 31.9388 8.65905C30.9663 8.53421 30.1944 8.34153 29.6233 8.08094C29.0612 7.8204 28.7846 7.49471 28.7934 7.10393V0.989254ZM41.7464 8.74048V2.48739H46.5916V8.74048H41.7464ZM44.1823 1.59991C43.415 1.59991 42.7546 1.52256 42.2015 1.36786C41.6482 1.21045 41.3716 1.02182 41.3716 0.80199C41.3716 0.579441 41.6482 0.390817 42.2015 0.236118C42.7546 0.0787061 43.415 0 44.1823 0C44.9587 0 45.619 0.0787061 46.1632 0.236118C46.7165 0.390817 46.9931 0.579441 46.9931 0.80199C46.9931 1.02182 46.7165 1.21045 46.1632 1.36786C45.619 1.52256 44.9587 1.59991 44.1823 1.59991ZM56.4192 0.40303V8.74048H51.574V0.40303H56.4192ZM66.2467 0.40303V8.74048H61.4015V0.40303H66.2467ZM77.1452 8.86667C75.8423 8.86667 74.6689 8.79611 73.625 8.65499C72.5899 8.51111 71.769 8.29943 71.1623 8.0199C70.5644 7.74037 70.2655 7.39569 70.2655 6.98586C70.2655 6.63306 70.4797 6.3413 70.9079 6.11058C71.3363 5.87991 71.9207 5.69534 72.6613 5.55693C73.4019 5.41851 74.2362 5.31403 75.1643 5.24347C76.1011 5.1702 77.0693 5.11728 78.0687 5.08471C79.2732 5.04672 80.2503 5.01279 80.9999 4.98293C81.7495 4.95035 82.2937 4.90149 82.6328 4.83635C82.9809 4.76849 83.1548 4.66403 83.1548 4.5229V4.49847C83.1548 4.19179 82.8559 3.95431 82.258 3.78604C81.6602 3.61777 80.7991 3.53364 79.6749 3.53364C78.488 3.53364 77.5467 3.61235 76.8507 3.76976C76.1637 3.92717 75.6996 4.11308 75.4587 4.32749L70.9348 4.13208C71.2916 3.75212 71.8806 3.43458 72.7015 3.17946C73.5224 2.92163 74.5263 2.72894 75.713 2.60138C76.8997 2.47111 78.2114 2.40597 79.648 2.40597C80.6385 2.40597 81.6246 2.44125 82.6061 2.51181C83.5876 2.58238 84.4844 2.69908 85.2964 2.86192C86.1083 3.02205 86.7597 3.24052 87.2504 3.51736C87.7501 3.79418 88 4.14022 88 4.55546V8.74048H83.3421V7.88149H83.1815C82.887 8.05518 82.4722 8.218 81.9368 8.36999C81.4104 8.51928 80.7457 8.64005 79.9425 8.73231C79.1483 8.82187 78.216 8.86667 77.1452 8.86667ZM78.4033 7.78377C79.3758 7.78377 80.2191 7.72543 80.933 7.60872C81.6469 7.4893 82.1956 7.33189 82.5792 7.1365C82.9719 6.94106 83.1682 6.72803 83.1682 6.49735V5.76049C83.0165 5.79847 82.7577 5.83375 82.3919 5.86633C82.035 5.8989 81.6334 5.92741 81.1872 5.95182C80.7411 5.97623 80.2994 5.99797 79.8622 6.01697C79.425 6.03596 79.0457 6.05225 78.7245 6.06583C78.0018 6.09565 77.3548 6.14451 76.7838 6.21236C76.2127 6.28021 75.762 6.37523 75.4319 6.49735C75.1017 6.61677 74.9367 6.77147 74.9367 6.96145C74.9367 7.23282 75.2623 7.43773 75.9138 7.57615C76.5652 7.71456 77.3951 7.78377 78.4033 7.78377Z" fill="#2D2D2D"/>
</svg>
