<svg width="200" height="200" viewBox="0 0 200 200" fill="none" xmlns="http://www.w3.org/2000/svg">
<path d="M43.058 105.095L41.2863 104.708L40.883 102.94C40.8762 102.91 40.8593 102.883 40.835 102.863C40.8108 102.844 40.7807 102.833 40.7497 102.833C40.7185 102.834 40.6883 102.844 40.6639 102.864C40.6394 102.883 40.6221 102.91 40.6147 102.94L40.2113 104.717L38.4397 105.137C38.4091 105.144 38.382 105.162 38.3626 105.187C38.3433 105.211 38.3329 105.242 38.333 105.273C38.3332 105.304 38.344 105.334 38.3638 105.358C38.3835 105.382 38.4109 105.399 38.4413 105.405L40.213 105.792L40.6147 107.56C40.6221 107.59 40.6394 107.617 40.6639 107.637C40.6883 107.656 40.7185 107.666 40.7497 107.667C40.7807 107.667 40.8108 107.656 40.835 107.637C40.8593 107.617 40.8762 107.59 40.883 107.56L41.288 105.783L43.0597 105.363C43.0908 105.357 43.1189 105.341 43.1391 105.316C43.1593 105.292 43.1703 105.261 43.1703 105.229C43.1703 105.197 43.1593 105.167 43.1391 105.142C43.1189 105.118 43.0908 105.101 43.0597 105.095H43.058ZM87.803 43.6783L86.5147 43.3983L86.2213 42.1117C86.2164 42.0896 86.2042 42.0699 86.1867 42.0556C86.1691 42.0414 86.1473 42.0335 86.1247 42.0333C86.1019 42.0338 86.08 42.0417 86.0622 42.0558C86.0444 42.07 86.0318 42.0896 86.0263 42.1117L85.733 43.4033L84.4447 43.71C84.4223 43.715 84.4024 43.7274 84.3881 43.7453C84.3739 43.7632 84.3662 43.7854 84.3663 43.8083C84.3669 43.8311 84.3751 43.8529 84.3896 43.8705C84.4041 43.888 84.4241 43.9002 84.4463 43.905L85.7347 44.185L86.0263 45.4717C86.0318 45.4937 86.0444 45.5133 86.0622 45.5275C86.08 45.5417 86.1019 45.5496 86.1247 45.55C86.1473 45.5498 86.1691 45.5419 86.1867 45.5277C86.2042 45.5135 86.2164 45.4937 86.2213 45.4717L86.5163 44.18L87.8047 43.8733C87.827 43.8686 87.8469 43.8562 87.861 43.8382C87.875 43.8202 87.8822 43.7978 87.8813 43.775C87.8814 43.7523 87.8737 43.7303 87.8594 43.7127C87.8451 43.6951 87.8252 43.6829 87.803 43.6783ZM122.441 80.2616L124.213 79.875L124.615 78.1066C124.622 78.0764 124.639 78.0494 124.664 78.0301C124.688 78.0108 124.719 78.0002 124.75 78C124.781 78 124.811 78.0105 124.835 78.0299C124.859 78.0493 124.876 78.0764 124.883 78.1066L125.288 79.8833L127.06 80.3033C127.091 80.3093 127.119 80.326 127.139 80.3505C127.159 80.375 127.17 80.4057 127.17 80.4375C127.17 80.4692 127.159 80.4999 127.139 80.5244C127.119 80.5489 127.091 80.5656 127.06 80.5716L125.288 80.9583L124.885 82.7266C124.878 82.7569 124.861 82.784 124.837 82.8034C124.813 82.8227 124.782 82.8333 124.751 82.8333C124.72 82.8331 124.69 82.8225 124.666 82.8032C124.641 82.7838 124.624 82.7569 124.616 82.7266L124.213 80.95L122.441 80.53C122.411 80.5225 122.384 80.5049 122.364 80.4801C122.345 80.4553 122.335 80.4247 122.335 80.3933C122.335 80.3625 122.345 80.3326 122.365 80.3086C122.384 80.2847 122.411 80.2681 122.441 80.2616ZM129.89 65.3333L130.806 65.1333L131.013 64.2183C131.017 64.2023 131.025 64.1881 131.038 64.1778C131.051 64.1676 131.067 64.162 131.083 64.162C131.099 64.162 131.115 64.1676 131.128 64.1778C131.141 64.1881 131.15 64.2023 131.153 64.2183L131.361 65.1383L132.278 65.355C132.294 65.359 132.307 65.368 132.317 65.3807C132.327 65.3933 132.333 65.4089 132.333 65.425C132.333 65.4412 132.327 65.4568 132.317 65.4693C132.307 65.4817 132.292 65.4902 132.276 65.4933L131.36 65.6933L131.153 66.6083C131.15 66.6243 131.141 66.6385 131.128 66.6488C131.115 66.659 131.099 66.6646 131.083 66.6646C131.067 66.6646 131.051 66.659 131.038 66.6488C131.025 66.6385 131.017 66.6243 131.013 66.6083L130.805 65.6883L129.888 65.4716C129.872 65.4679 129.858 65.4589 129.848 65.4462C129.838 65.4335 129.833 65.4178 129.833 65.4016C129.833 65.3854 129.839 65.3698 129.849 65.3573C129.86 65.3449 129.874 65.3364 129.89 65.3333Z" fill="#4F3CC9"/>
<path d="M71.2217 155.298V100.667C71.2217 99.1837 71.8108 97.7615 72.8594 96.7128C73.9081 95.6642 75.3303 95.0751 76.8133 95.0751H93.8134C94.8868 95.0753 95.9374 95.3843 96.8399 95.9653C97.7425 96.5463 98.4588 97.3748 98.9034 98.3517L100.723 102.333C101.168 103.311 101.884 104.139 102.786 104.721C103.689 105.302 104.74 105.611 105.813 105.612H132.567C133.302 105.611 134.03 105.755 134.71 106.035C135.389 106.316 136.007 106.728 136.527 107.248C137.047 107.767 137.46 108.385 137.741 109.064C138.023 109.743 138.167 110.471 138.167 111.207V155.298C138.166 156.781 137.577 158.203 136.528 159.251C135.48 160.299 134.058 160.888 132.575 160.888H76.8133C75.3306 160.888 73.9086 160.299 72.86 159.251C71.8114 158.203 71.2221 156.781 71.2217 155.298Z" fill="#5564D7"/>
<path d="M132.567 161.388H76.8133C75.1986 161.387 73.6504 160.744 72.5084 159.603C71.3664 158.461 70.7239 156.913 70.7217 155.298V100.667C70.7234 99.0517 71.3658 97.5033 72.5078 96.3612C73.6499 95.2192 75.1983 94.5768 76.8133 94.5751H93.8134C94.9824 94.577 96.1263 94.9144 97.1092 95.5472C98.0921 96.18 98.8728 97.0817 99.3584 98.1451L101.172 102.133C101.577 103.023 102.229 103.777 103.05 104.306C103.872 104.835 104.828 105.117 105.805 105.118H132.567C134.183 105.118 135.733 105.759 136.876 106.9C138.02 108.042 138.664 109.591 138.667 111.207V155.298C138.664 156.915 138.021 158.464 136.877 159.606C135.733 160.748 134.183 161.389 132.567 161.388ZM76.8133 95.5717C75.4629 95.5735 74.1684 96.111 73.2138 97.0662C72.2592 98.0214 71.7226 99.3163 71.7217 100.667V155.298C71.7234 156.648 72.2605 157.942 73.215 158.896C74.1696 159.85 75.4636 160.387 76.8133 160.388H132.567C133.918 160.389 135.214 159.854 136.17 158.899C137.127 157.945 137.665 156.65 137.667 155.298V111.207C137.665 109.857 137.128 108.563 136.173 107.608C135.219 106.654 133.925 106.117 132.575 106.115H105.813C104.644 106.113 103.5 105.776 102.517 105.142C101.534 104.509 100.754 103.607 100.268 102.543L98.4567 98.5551C98.0508 97.6663 97.3983 96.9127 96.5766 96.3838C95.755 95.855 94.7988 95.5731 93.8217 95.5717H76.8133Z" fill="#4F3CC9"/>
<path d="M129.692 160.888C129.692 160.888 123.142 160.57 121.544 152.262L115.81 119.818C115.582 118.525 114.906 117.353 113.9 116.509C112.894 115.664 111.623 115.201 110.31 115.2H59.5969C58.7743 115.199 57.9617 115.38 57.217 115.729C56.4723 116.078 55.8138 116.588 55.2885 117.221C54.7632 117.854 54.3841 118.595 54.1781 119.391C53.9722 120.188 53.9444 121.02 54.0969 121.828L60.6169 156.333C60.859 157.614 61.5412 158.771 62.5455 159.602C63.5498 160.433 64.8131 160.888 66.1169 160.887L129.692 160.888Z" fill="#FF8B6A"/>
<path d="M129.692 161.388H66.112C64.693 161.388 63.3187 160.892 62.2261 159.986C61.1336 159.081 60.3912 157.822 60.1269 156.428L53.6119 121.928C53.4455 121.048 53.4752 120.142 53.6991 119.275C53.9229 118.408 54.3353 117.6 54.9068 116.911C55.4784 116.221 56.1951 115.666 57.0058 115.285C57.8165 114.904 58.7012 114.707 59.5969 114.707H110.304C111.736 114.704 113.123 115.208 114.221 116.128C115.319 117.049 116.056 118.327 116.304 119.738L122.039 152.182C123.539 160.005 129.655 160.393 129.717 160.397L129.692 161.388ZM59.5969 115.7C58.8485 115.7 58.1093 115.866 57.4321 116.185C56.7549 116.503 56.1563 116.967 55.6789 117.544C55.2014 118.12 54.857 118.795 54.67 119.519C54.483 120.244 54.458 121.001 54.5969 121.737L61.1119 156.237C61.3326 157.402 61.9527 158.453 62.8654 159.21C63.7781 159.967 64.9263 160.382 66.112 160.383H126.432C126.277 160.3 126.117 160.217 125.957 160.113C124.194 159.04 121.912 156.823 121.054 152.352L115.319 119.905C115.111 118.726 114.494 117.658 113.577 116.889C112.66 116.12 111.501 115.699 110.304 115.7H59.5969Z" fill="#4F3CC9"/>
<path d="M92.4683 64.3983L76.175 70.9483L88.795 75.9016C88.795 75.9016 100.137 72.7067 92.4683 64.3983Z" fill="#4F3CC9"/>
<path d="M34 59.1266C34 59.1266 34 111.367 90.5517 74.7833C90.5517 74.7833 76.9733 77.3383 71.0617 46.6666L34 59.1266Z" fill="white"/>
<path d="M56.9833 88.2916C53.04 88.2916 49.5367 87.4582 46.4733 85.7916C41.1533 82.8982 37.2233 77.3599 35.1067 69.7782C34.1335 66.3076 33.5939 62.7298 33.5 59.1266V58.7682L71.445 46.0099L71.5533 46.5716C74.5767 62.2632 79.6267 68.9682 83.3333 71.8332C87.2433 74.8549 90.4317 74.2999 90.4633 74.2932L92.9633 73.8232L90.8267 75.2049C77.3517 83.9166 66.0233 88.2916 56.9833 88.2916ZM34.5 59.4849C34.637 62.8857 35.1643 66.2595 36.0717 69.5399C37.4967 74.6316 40.54 81.4349 46.9483 84.9182C56.445 90.0782 70.53 86.8332 88.8333 75.2832C87.375 75.1166 85.1667 74.5199 82.7117 72.6166C80.2567 70.7132 78.045 67.8932 76.15 64.2249C73.8633 59.7982 72.0233 54.1116 70.675 47.3166L34.5 59.4849Z" fill="#4F3CC9"/>
<path d="M51.8767 83.7283L51.5883 82.7716C51.705 82.7366 63.3433 79.21 73.8933 74.4866L74.3017 75.3983C63.6917 80.15 52 83.6933 51.8767 83.7283ZM48.5233 79.415L48.2317 78.4583C48.33 78.4283 58.2533 75.3716 70.2317 70.3283L70.6183 71.2499C58.5917 76.3133 48.6233 79.3833 48.5233 79.415ZM44.8483 74.6216L44.5567 73.6666C44.6517 73.6383 54.1117 70.7399 66.5667 65.8516L66.9317 66.7833C54.4383 71.6849 44.9433 74.5933 44.8483 74.6216ZM42.2883 69.3516L42 68.3933C42.0967 68.3633 51.765 65.5033 56.3133 63.4633L56.7233 64.3766C52.12 66.4433 42.3867 69.3233 42.2883 69.3516Z" fill="#4F3CC9"/>
<path d="M137.818 121.017L141.738 118.547L149.574 130.981L145.654 133.451L137.818 121.017Z" fill="#4F3CC9"/>
<path d="M132.024 124.909C141.641 124.909 149.437 117.112 149.437 107.495C149.437 97.8781 141.641 90.0819 132.024 90.0819C122.407 90.0819 114.61 97.8781 114.61 107.495C114.61 117.112 122.407 124.909 132.024 124.909Z" fill="#FF8B6A"/>
<path d="M132.058 125.413C130.712 125.413 129.371 125.262 128.058 124.963C123.622 123.947 119.742 121.271 117.215 117.485C114.689 113.699 113.707 109.09 114.471 104.603C115.234 100.116 117.686 96.0909 121.323 93.3542C124.96 90.6175 129.507 89.3762 134.03 89.8851C138.553 90.3939 142.71 92.6143 145.648 96.0907C148.586 99.5672 150.083 104.036 149.83 108.581C149.578 113.125 147.597 117.401 144.292 120.531C140.987 123.661 136.61 125.408 132.058 125.413ZM131.997 90.58C128.248 90.5869 124.607 91.8395 121.648 94.1409C118.688 96.4423 116.578 99.662 115.648 103.294C114.718 106.926 115.021 110.764 116.51 114.204C117.999 117.645 120.59 120.493 123.874 122.301C127.158 124.109 130.95 124.774 134.654 124.192C138.357 123.609 141.762 121.813 144.333 119.084C146.904 116.356 148.496 112.85 148.857 109.119C149.219 105.387 148.33 101.641 146.33 98.47C144.811 96.044 142.697 94.0463 140.189 92.6666C137.681 91.2869 134.862 90.571 132 90.5867L131.997 90.58Z" fill="#4F3CC9"/>
<path d="M132.023 120.775C139.357 120.775 145.303 114.829 145.303 107.495C145.303 100.161 139.357 94.215 132.023 94.215C124.689 94.215 118.743 100.161 118.743 107.495C118.743 114.829 124.689 120.775 132.023 120.775Z" fill="white"/>
<path d="M132.047 121.27C129.65 121.274 127.294 120.652 125.212 119.466C123.129 118.281 121.391 116.572 120.171 114.51C118.95 112.448 118.289 110.102 118.252 107.706C118.215 105.31 118.803 102.945 119.96 100.846C121.116 98.747 122.8 96.9858 124.845 95.7365C126.89 94.4873 129.226 93.7931 131.622 93.7226C134.017 93.6522 136.39 94.2078 138.505 95.3347C140.62 96.4616 142.404 98.1208 143.682 100.148C144.996 102.231 145.727 104.627 145.8 107.089C145.873 109.55 145.285 111.986 144.097 114.142C142.909 116.299 141.164 118.098 139.045 119.351C136.926 120.605 134.509 121.267 132.047 121.27ZM132 94.71C129.166 94.7133 126.412 95.6587 124.173 97.3976C121.934 99.1364 120.337 101.57 119.632 104.316C118.927 107.062 119.155 109.964 120.279 112.566C121.404 115.168 123.361 117.323 125.844 118.692C128.326 120.06 131.193 120.565 133.994 120.126C136.795 119.687 139.37 118.33 141.315 116.268C143.26 114.206 144.465 111.556 144.74 108.735C145.015 105.913 144.344 103.08 142.834 100.682C141.943 99.2586 140.778 98.0264 139.407 97.0566C138.037 96.0868 136.487 95.3985 134.849 95.0317C133.914 94.8187 132.959 94.7109 132 94.71Z" fill="#4F3CC9"/>
<path d="M151.807 131.887C150.598 129.937 148.038 129.337 146.088 130.546C144.139 131.754 143.538 134.315 144.747 136.264L154.092 151.336C155.301 153.285 157.861 153.886 159.81 152.677C161.76 151.468 162.36 148.908 161.152 146.958L151.807 131.887Z" fill="#FF8B6A"/>
<path d="M157.52 152.72C156.733 152.722 155.959 152.524 155.269 152.145C154.579 151.766 153.996 151.218 153.575 150.553L144.122 135.553C143.463 134.508 143.247 133.245 143.519 132.04C143.792 130.836 144.532 129.789 145.577 129.13C146.622 128.471 147.886 128.254 149.09 128.527C150.295 128.8 151.342 129.54 152.001 130.585L161.455 145.585C161.899 146.288 162.146 147.098 162.171 147.929C162.195 148.76 161.997 149.583 161.595 150.311C161.194 151.04 160.605 151.647 159.889 152.07C159.173 152.494 158.357 152.717 157.525 152.718L157.52 152.72ZM148.052 129.412C147.399 129.413 146.759 129.589 146.197 129.922C145.635 130.255 145.173 130.732 144.858 131.304C144.543 131.876 144.387 132.522 144.406 133.174C144.425 133.827 144.619 134.462 144.967 135.015L154.422 150.015C154.678 150.421 155.011 150.772 155.403 151.049C155.795 151.326 156.237 151.524 156.705 151.63C157.173 151.736 157.657 151.749 158.13 151.668C158.603 151.587 159.055 151.413 159.461 151.157C159.867 150.901 160.219 150.568 160.496 150.176C160.773 149.785 160.97 149.342 161.076 148.874C161.182 148.406 161.195 147.922 161.114 147.449C161.033 146.976 160.86 146.524 160.604 146.118L151.149 131.118C150.894 130.711 150.562 130.358 150.17 130.081C149.778 129.803 149.336 129.605 148.867 129.5C148.6 129.44 148.326 129.411 148.052 129.412Z" fill="#4F3CC9"/>
</svg>
